<svg  xmlns="http://www.w3.org/2000/svg" viewBox="0 0 24 24" fill="none" stroke="#f7931a" stroke-width="2" stroke-linecap="round" stroke-linejoin="round" class="lucide lucide-bitcoin">
  <path d="M11.767 19.089c4.924.868 6.14-6.025 1.216-6.894m-1.216 6.894L5 17.729m6.767 1.36 1.215.215m-1.215-.215v-6.895m1.215 6.895V12.41m0 .215 1.784-1.838m-1.784 1.623 7.88 1.392m-9.096.783V5.466m-1.475 6.198a3.585 3.585 0 0 1-1.928-3.278C3.764 6.9 5.142 5.502 6.628 5.9l1.928-2.3m3.211 3.066s1.928-.783 2.494-1.072c.566-.29 1.928-.434 2.022.783.093 1.218-1.096 2.131-1.096 2.131l1.784.909s1.4.318 1.442 1.942c.028 1.073-.538 2.63-2.537 2.777"></path>
</svg>
 